# xmcd
#
# Track frame offsets:
#	150
#	22575
#	38766
#	58092
#	76491
#	108377
#	128996
#	148734
#	173189
#	189662
#
# Disc length: 2746 seconds
#
# Revision: 11
# Processed by: cddbd v1.5.2PL0 Copyright (c) Steve Scherf et al.
# Submitted via: Jack! The Knife 20 Magnifico
#
DISCID=830ab80a
DTITLE=Def Leppard - Adrenalize
DYEAR=1992
DGENRE=Hard Rock
TTITLE0=Let's Get Rocked
TTITLE1=Heaven Is
TTITLE2=Make Love Like A Man
TTITLE3=Tonight
TTITLE4=White Lightning
TTITLE5=Stand Up (Kick Love Into Motion)
TTITLE6=Personal Property
TTITLE7=Have You Ever Needed Someone So Bad
TTITLE8=I Wanna Touch U
TTITLE9=Tear It Down
EXTD=Mike Shipley and Def Leppard
EXTT0=Collen, Elliott, Mutt Lange, Savage
EXTT1=Clark, Collen, Elliott, Lange, Savage
EXTT2=Clark, Collen, Elliott, Lange
EXTT3=Clark, Collen, Elliott, Lange, Savage
EXTT4=Collen, Elliott, Lange, Savage, Clark
EXTT5=Clark, Collen, Elliott, Lange
EXTT6=Collen, Elliott, Lange, Savage
EXTT7=Collen, Elliott, Lange
EXTT8=Allen, Clark, Collen, Elliott, Lange
EXTT9=Clark, Collen, Elliott, Savage
PLAYORDER=
